<svg xmlns="http://www.w3.org/2000/svg" xmlns:xlink="http://www.w3.org/1999/xlink" width='141' height='141' viewBox='-5 -5 146 146' fill='none'>
    <path d="M70.5996 140.602C109.26 140.602 140.6 109.261 140.6 70.6015C140.6 31.9416 109.26 0.601562 70.5996 0.601562C31.9396 0.601562 0.599609 31.9416 0.599609 70.6015C0.599609 109.261 31.9396 140.602 70.5996 140.602Z" fill="#1096D4"></path>
    <path d="M135.034 56.2832H6.16992V59.0673H135.034V56.2832Z" fill="white"></path>
    <path d="M135.034 82.0352H6.16992V84.8192H135.034V82.0352Z" fill="white"></path>
            <path d="M28.3418 48.1284L30.0321 45.3443C30.6287 44.35 31.3248 43.7534 32.0208 43.5546C32.7168 43.3557 33.5123 43.4551 34.2083 43.9523C35.0038 44.4494 35.4015 45.0461 35.5009 45.7421C35.6003 46.4381 35.4015 47.333 34.8049 48.2279L34.3077 49.0233L36.7935 50.5148L35.5009 52.6029L28.3418 48.1284ZM33.4129 47.6313C33.6117 47.333 33.7112 46.9353 33.6117 46.7364C33.6117 46.4381 33.4129 46.2392 33.1146 46.0404C32.8163 45.8415 32.5179 45.8415 32.3191 45.8415C32.1202 45.9409 31.822 46.1398 31.6231 46.4381L31.2253 47.0347L33.0151 48.1284L33.4129 47.6313Z" fill="white"></path>
        <path d="M33.4124 40.4724L35.6993 37.9866C36.4948 37.1912 37.1908 36.694 37.9863 36.5946C38.6823 36.4951 39.3784 36.694 40.0744 37.2906C40.5715 37.6883 40.7704 38.1855 40.8698 38.5832C40.9692 38.9809 40.8698 39.4781 40.6709 39.9753L44.6482 40.8701L42.8585 42.7594L39.4777 41.9639L39.0801 42.3616L41.2675 44.4497L39.5772 46.2395L33.4124 40.4724ZM38.384 40.7707C38.6823 40.4724 38.7817 40.1741 38.7817 39.8758C38.7817 39.5775 38.6823 39.3787 38.384 39.0804C38.0857 38.8815 37.8869 38.7821 37.5886 38.7821C37.2903 38.8815 37.0914 38.981 36.7931 39.2793L36.2959 39.8758L37.7874 41.2679L38.384 40.7707Z" fill="white"></path>
        <path d="M48.427 38.3841C47.8304 38.7818 47.3333 39.0801 46.7367 39.1795C46.1401 39.279 45.643 39.3784 45.0464 39.279C44.5492 39.1795 44.0521 38.9807 43.5549 38.6824C43.0577 38.3841 42.66 37.8869 42.2622 37.3897L42.1628 37.2903C41.7651 36.7932 41.5662 36.1966 41.4668 35.6C41.3674 35.0034 41.3674 34.5062 41.4668 33.9096C41.5662 33.4125 41.7651 32.8159 42.1628 32.4182C42.4611 31.921 42.9583 31.5233 43.4554 31.1256C43.9526 30.7278 44.5492 30.529 45.1458 30.3301C45.7424 30.1312 46.2395 30.1312 46.8361 30.2307C47.3333 30.3301 47.9299 30.529 48.3276 30.8273C48.8248 31.1256 49.2225 31.5233 49.6202 32.1199L49.7196 32.2193C50.1174 32.7165 50.3163 33.313 50.5151 33.9096C50.714 34.5062 50.6146 35.0034 50.5151 35.6C50.4157 36.0971 50.2168 36.6937 49.8191 37.1909C49.4214 37.5886 49.0236 37.9863 48.427 38.3841ZM47.4327 36.7932C47.9299 36.4949 48.2281 35.9977 48.2281 35.4011C48.2281 34.8045 48.0293 34.2079 47.6316 33.6113L47.5322 33.5119C47.1344 32.9153 46.6373 32.5176 46.0407 32.3187C45.5435 32.2193 44.9469 32.3187 44.4497 32.617C43.9526 32.9153 43.6543 33.4125 43.6543 33.9096C43.5549 34.4068 43.7537 35.0034 44.2509 35.6994L44.3503 35.7989C44.7481 36.3954 45.2452 36.7932 45.8418 36.992C46.339 37.2903 46.9355 37.1909 47.4327 36.7932Z" fill="white"></path>
        <path d="M49.7196 27.5463L54.9896 25.3588L55.6855 27.0492L52.6032 28.3418L53.2992 30.0321L55.6855 29.0378L56.3816 30.7282L53.9953 31.7225L55.1884 34.5065L52.9015 35.5009L49.7196 27.5463Z" fill="white"></path>
        <path d="M57.177 24.763L59.5634 24.1664L61.7509 32.4193L59.3645 33.0159L57.177 24.763Z" fill="white"></path>
        <path d="M66.3248 31.7226C65.1316 31.8221 64.2367 31.7226 63.5407 31.3249C62.8447 30.9272 62.4469 30.2311 62.3475 29.3363L64.6344 29.0379C64.6344 29.1374 64.7339 29.3362 64.7339 29.4357C64.8333 29.5351 64.9327 29.6346 65.0322 29.734C65.1316 29.8334 65.231 29.9328 65.4299 29.9328C65.6288 29.9328 65.8276 29.9328 66.0265 29.9328C66.4242 29.9328 66.6231 29.8334 66.8219 29.6345C67.0208 29.4357 67.0208 29.2368 67.0208 29.0379C67.0208 28.9385 67.0208 28.8391 66.9214 28.7397C66.822 28.6402 66.8219 28.5408 66.7225 28.5408C66.6231 28.5408 66.4242 28.4414 66.3248 28.4414C66.1259 28.4414 65.927 28.4414 65.6287 28.4414C65.0321 28.4414 64.535 28.4414 64.0378 28.3419C63.6401 28.2425 63.2424 28.1431 63.0435 27.9442C62.7452 27.7453 62.5464 27.5465 62.447 27.2482C62.3475 26.9499 62.248 26.5522 62.1486 26.1544C62.1486 25.7567 62.1486 25.4584 62.2481 25.0607C62.3475 24.663 62.5463 24.3647 62.8446 24.1658C63.1429 23.8675 63.4412 23.6686 63.839 23.4698C64.2367 23.2709 64.6344 23.1715 65.231 23.072C66.2253 22.9726 67.1202 23.072 67.7168 23.4698C68.3134 23.8675 68.7112 24.4641 68.91 25.359L66.623 25.6573C66.5236 25.359 66.4242 25.1601 66.2253 25.0607C66.0265 24.9612 65.7282 24.8618 65.4299 24.9612C65.1316 24.9612 64.8333 25.0607 64.7339 25.2596C64.6344 25.4584 64.535 25.5579 64.535 25.8561C64.535 25.9556 64.535 26.055 64.6344 26.1544C64.7338 26.2539 64.7338 26.3533 64.8333 26.3533C64.9327 26.4527 65.0322 26.4527 65.231 26.4527C65.4299 26.4527 65.6288 26.4527 65.9271 26.4527C66.4242 26.4527 66.9213 26.4527 67.3191 26.5522C67.7168 26.6516 68.1146 26.751 68.4129 26.8505C68.7112 27.0493 68.91 27.2482 69.1088 27.5465C69.3077 27.8448 69.4072 28.2425 69.4072 28.6402C69.4072 29.038 69.4071 29.4357 69.3077 29.734C69.2083 30.1317 69.0094 30.43 68.7111 30.7283C68.4128 31.0266 68.1146 31.2254 67.7168 31.4243C67.3191 31.6232 66.8219 31.7226 66.3248 31.7226Z" fill="white"></path>
        <path d="M73.5833 31.623C72.3901 31.5236 71.4952 31.2253 70.8987 30.7282C70.3021 30.231 70.1032 29.4355 70.1032 28.5406L72.3901 28.7395C72.3901 28.9384 72.3901 29.0378 72.4895 29.1372C72.4895 29.2367 72.589 29.4355 72.6884 29.535C72.7878 29.6344 72.8872 29.7338 73.0861 29.8333C73.285 29.9327 73.4839 29.9327 73.6827 29.9327C74.0805 29.9327 74.2793 29.9327 74.4782 29.7338C74.677 29.6344 74.7765 29.4355 74.7765 29.1372C74.7765 29.0378 74.7765 28.9384 74.7765 28.839C74.7765 28.7395 74.677 28.6401 74.5776 28.5406C74.4782 28.4412 74.3788 28.4412 74.1799 28.3418C73.981 28.2424 73.7821 28.2424 73.5833 28.1429C72.9867 28.0435 72.4895 27.8446 72.0918 27.7452C71.6941 27.6458 71.3958 27.3475 71.1969 27.1486C70.9981 26.9497 70.7992 26.6515 70.6998 26.3532C70.6003 26.0549 70.6003 25.6571 70.6003 25.2594C70.6003 24.8617 70.6998 24.5634 70.8987 24.2651C71.0975 23.9668 71.2963 23.6685 71.5946 23.4696C71.8929 23.2707 72.2907 23.0719 72.6884 22.9725C73.0861 22.873 73.5833 22.873 74.0804 22.873C75.0747 22.9725 75.8702 23.2708 76.4668 23.6685C76.964 24.1656 77.2623 24.8617 77.2623 25.7566L74.9753 25.5577C74.9753 25.2594 74.8759 25.0605 74.6771 24.8617C74.4782 24.6628 74.2793 24.5634 73.8816 24.5634C73.5833 24.5634 73.285 24.5634 73.0861 24.6628C72.8872 24.7622 72.7878 24.9611 72.7878 25.16C72.7878 25.2594 72.7878 25.3588 72.7878 25.4582C72.7878 25.5577 72.8873 25.6571 72.9867 25.6571C73.0861 25.7566 73.1856 25.7566 73.3845 25.856C73.5833 25.9554 73.7822 25.9554 73.981 26.0548C74.4782 26.1543 74.9754 26.2537 75.3731 26.4526C75.7708 26.552 76.0691 26.7509 76.3674 26.9497C76.6657 27.1486 76.7651 27.4469 76.964 27.7452C77.1628 28.0435 77.1628 28.4412 77.0634 28.9384C77.0634 29.3361 76.964 29.7338 76.7651 30.0321C76.5662 30.3304 76.3674 30.6287 76.0691 30.927C75.7708 31.1259 75.3731 31.3247 74.9753 31.4242C74.677 31.623 74.1799 31.7225 73.5833 31.623Z" fill="white"></path>
        <path d="M79.8479 23.7683L82.2342 24.2655L80.345 32.6177L77.9587 32.1206L79.8479 23.7683Z" fill="white"></path>
        <path d="M85.5147 34.5062C84.9181 34.2079 84.3215 33.9096 83.9238 33.5119C83.526 33.1141 83.2277 32.617 82.9295 32.1198C82.7306 31.6227 82.6312 31.1255 82.6312 30.5289C82.6312 29.9323 82.7306 29.3357 83.0289 28.7392V28.6397C83.3272 28.0431 83.6255 27.546 84.0232 27.1482C84.4209 26.7505 84.9181 26.4522 85.4152 26.2534C85.9124 26.0545 86.509 25.955 87.1056 25.955C87.7022 25.955 88.2988 26.1539 88.8954 26.3528C89.492 26.6511 89.9891 26.9494 90.4862 27.3471C90.884 27.7448 91.2817 28.1426 91.4806 28.6397C91.6794 29.1369 91.7789 29.634 91.7789 30.2306C91.7789 30.8272 91.6795 31.4238 91.3812 32.0204V32.1198C91.0829 32.7164 90.7846 33.2136 90.3868 33.6113C89.9891 34.009 89.4919 34.3073 88.9948 34.5062C88.4976 34.705 87.9011 34.8045 87.3045 34.8045C86.8073 34.9039 86.2107 34.8045 85.5147 34.5062ZM86.3102 32.7164C86.9068 32.9153 87.4039 32.9153 87.901 32.617C88.3982 32.3187 88.7959 31.8215 89.0942 31.1255V31.0261C89.3925 30.33 89.492 29.7335 89.2931 29.1369C89.0942 28.6397 88.7959 28.242 88.1993 28.0431C87.6027 27.8443 87.1056 27.8443 86.6084 28.0431C86.1113 28.242 85.7135 28.7391 85.4152 29.5346V29.634C85.117 30.3301 85.0175 31.0261 85.2164 31.5232C85.4152 32.1198 85.813 32.5176 86.3102 32.7164Z" fill="white"></path>
        <path d="M95.5577 29.7342L97.7452 31.3251L97.1486 36.7939L99.9327 32.916L101.623 34.2087L96.6515 41.0694L94.7623 39.6774L95.3589 33.5126L92.177 37.8876L90.4867 36.595L95.5577 29.7342Z" fill="white"></path>
        <path d="M105.402 37.8869L107.49 40.2732L102.916 47.9295L101.226 45.9408L102.121 44.5488L100.232 42.4607L98.7403 43.1568L97.2488 41.4664L105.402 37.8869ZM101.823 41.7647L103.016 43.1568L104.905 40.2732L101.823 41.7647Z" fill="white"></path>
        <path d="M110.571 44.3499L111.764 46.438L105.997 49.8187L107.588 52.6028L105.997 53.5971L103.114 48.725L110.571 44.3499Z" fill="white"></path>
        <path d="M42.7585 99.7344L44.5483 101.226C45.0455 101.624 45.4432 102.121 45.7415 102.618C46.0397 103.115 46.1392 103.513 46.2386 104.01C46.2386 104.507 46.2387 104.905 46.0398 105.402C45.8409 105.899 45.642 106.297 45.2443 106.794L45.1449 106.893C44.7472 107.291 44.3494 107.689 43.9517 107.987C43.554 108.286 43.0568 108.385 42.5597 108.484C42.0625 108.584 41.5654 108.484 41.0682 108.286C40.571 108.087 40.0739 107.788 39.4773 107.391L37.6875 105.899L42.7585 99.7344ZM40.2727 106.396C40.9687 106.993 41.5653 107.192 42.2613 107.092C42.9574 106.993 43.4546 106.595 44.0512 105.899L44.1506 105.8C44.4489 105.501 44.6477 105.104 44.7471 104.805C44.8466 104.507 44.946 104.209 44.946 103.811C44.946 103.413 44.8466 103.215 44.6477 102.916C44.4489 102.618 44.25 102.32 43.8523 102.021L43.1563 101.524L39.6761 105.8L40.2727 106.396Z" fill="white"></path>
    <path d="M48.8252 104.508L53.1008 106.894L52.5042 107.888L49.5212 106.198L48.4274 108.087L50.8138 109.479L50.3167 110.474L47.9303 109.082L46.8366 111.07L50.0184 112.86L49.4218 113.854L45.0468 111.369L48.8252 104.508Z" fill="white"></path>
    <path d="M54.0955 115.843C53.5983 115.644 53.2006 115.445 52.9023 115.147C52.604 114.849 52.3057 114.65 52.2063 114.352C52.0074 114.053 51.908 113.755 51.908 113.357C51.908 113.059 51.908 112.661 52.0075 112.363L53.3001 112.86C53.3001 113.059 53.2006 113.258 53.2006 113.457C53.2006 113.656 53.2006 113.854 53.3001 113.954C53.3995 114.053 53.4989 114.252 53.6977 114.451C53.8966 114.65 54.0955 114.749 54.3938 114.849C54.7915 115.048 55.1893 115.048 55.4876 114.948C55.7859 114.849 56.0841 114.65 56.1835 114.252C56.283 114.053 56.283 113.954 56.283 113.755C56.283 113.556 56.283 113.457 56.1835 113.357C56.0841 113.258 55.9847 113.059 55.7859 112.96C55.587 112.86 55.3881 112.661 55.0898 112.562C54.6921 112.363 54.2944 112.164 53.9961 111.866C53.6978 111.667 53.4989 111.369 53.3001 111.17C53.1012 110.971 53.1012 110.673 53.0018 110.374C53.0018 110.076 53.0017 109.778 53.2006 109.479C53.3 109.181 53.4989 108.883 53.6977 108.684C53.8966 108.485 54.195 108.286 54.4932 108.187C54.7915 108.087 55.0898 107.988 55.4876 108.087C55.8853 108.087 56.1836 108.187 56.5813 108.286C57.3767 108.585 57.9734 108.982 58.2716 109.479C58.5699 109.977 58.6694 110.673 58.4705 111.369L57.1779 110.871C57.2773 110.474 57.1779 110.076 57.0785 109.877C56.8796 109.579 56.5813 109.38 56.1835 109.281C55.7858 109.082 55.3881 109.082 55.1892 109.181C54.8909 109.281 54.6921 109.479 54.5927 109.778C54.4932 109.977 54.4932 110.076 54.4932 110.175C54.4932 110.275 54.4932 110.474 54.5927 110.573C54.6921 110.673 54.7915 110.872 54.9904 110.971C55.1893 111.07 55.3881 111.269 55.6864 111.468C56.0841 111.667 56.4819 111.866 56.7802 112.164C57.0785 112.462 57.2773 112.661 57.4762 112.86C57.6751 113.158 57.7745 113.357 57.7745 113.656C57.7745 113.954 57.7745 114.252 57.5756 114.65C57.4762 114.948 57.2773 115.247 57.0785 115.445C56.8796 115.644 56.5813 115.843 56.283 115.943C55.9847 116.042 55.587 116.141 55.2887 116.141C54.9904 116.141 54.5927 116.042 54.0955 115.843Z" fill="white"></path>
    <path d="M60.8561 109.777L63.2424 110.174C63.9385 110.274 64.4356 110.473 64.9328 110.771C65.43 111.069 65.7282 111.367 66.0265 111.765C66.3248 112.163 66.5237 112.561 66.5237 113.058C66.6231 113.555 66.6231 114.052 66.5237 114.649V114.748C66.4243 115.345 66.2254 115.842 66.0265 116.24C65.8277 116.637 65.4299 117.035 65.0322 117.333C64.6345 117.632 64.1373 117.831 63.6401 117.93C63.143 118.029 62.5464 118.029 61.8504 117.93L59.5635 117.532L60.8561 109.777ZM61.9498 116.737C62.8447 116.836 63.5407 116.737 64.0379 116.339C64.5351 115.941 64.8333 115.345 65.0322 114.45V114.35C65.1316 113.953 65.1316 113.555 65.0322 113.257C64.9328 112.958 64.9328 112.561 64.7339 112.362C64.5351 112.063 64.3362 111.865 64.0379 111.666C63.7396 111.467 63.3419 111.367 62.9442 111.268L62.1487 111.169L61.2538 116.637L61.9498 116.737Z" fill="white"></path>
    <path d="M68.3127 110.87L73.1848 110.771V111.964L69.7047 112.063V114.251H72.4888V115.345H69.7047V117.632L73.2842 117.532V118.725L68.2133 118.825L68.3127 110.87Z" fill="white"></path>
    <path id="curve" fill="transparent" d="M 78 118 C 78 125 300 4 -1 100"></path>
    <text width='500' fill="white" font-family="Arial" font-size="10.5" letter-spacing="0.7">
                <textPath xlink:href="#curve">2025</textPath>
    </text>
    <path d="M43.2562 75.6722L51.4096 67.5188C51.9068 67.0217 52.1057 66.3256 52.1057 65.6296C52.1057 64.0387 50.8131 62.8455 49.3216 62.8455H41.6653V65.6296C41.6653 66.2262 41.8642 66.7233 42.2619 67.1211L43.9522 68.8114L44.8472 67.9165L43.2562 66.3256C43.1568 66.1268 43.0574 65.9279 43.0574 65.729V65.5302H50.0176L41.9636 73.5841C41.4665 74.0813 41.2676 74.7773 41.2676 75.4734C41.2676 77.0643 42.5602 78.2574 44.0517 78.2574H51.7079V75.4734C51.7079 74.8768 51.5091 74.3796 51.1114 73.9819L49.421 72.2915L48.5262 73.1864L50.117 74.7773C50.2165 74.9762 50.3159 75.175 50.3159 75.3739V75.5728H43.2562V75.6722ZM63.242 75.2745V70.9989C63.242 70.2035 63.2421 69.408 62.9438 68.712C62.2477 67.0217 60.5574 66.3256 58.6681 66.3256C56.0829 66.3256 54.0943 67.5188 53.8954 70.0046H56.5801C56.6795 68.9109 57.3755 68.4137 58.6681 68.4137C60.2591 68.4137 60.6568 69.1097 60.6568 70.2035V70.8995L57.2761 71.0983C55.0886 71.2972 53.3983 72.4904 53.3983 74.6779C53.3983 76.5671 54.7903 78.2574 57.5744 78.2574C59.1653 78.2574 60.5574 77.462 61.0545 76.5671C61.154 77.462 61.85 78.158 63.0432 78.158C63.7392 78.158 63.9381 78.0585 64.4352 77.8597V75.871C64.4352 75.871 64.2364 75.871 64.0375 75.871C63.4409 75.9705 63.242 75.7716 63.242 75.2745ZM60.5574 73.5841C60.5574 75.2745 59.3642 76.1694 57.6738 76.1694C56.7789 76.1694 56.0829 75.5728 56.0829 74.7773C56.0829 73.8824 56.8784 73.3853 57.7733 73.2858L60.6568 73.087V73.5841H60.5574ZM75.671 75.2745V70.9989C75.671 70.2035 75.671 69.408 75.3727 68.712C74.6767 67.0217 72.9863 66.3256 71.0971 66.3256C68.5119 66.3256 66.5233 67.5188 66.3244 70.0046H69.0091C69.1085 68.9109 69.8045 68.4137 71.0971 68.4137C72.688 68.4137 73.0858 69.1097 73.0858 70.2035V70.8995L69.7051 71.0983C67.5176 71.2972 65.8273 72.4904 65.8273 74.6779C65.8273 76.5671 67.2193 78.2574 70.0034 78.2574C71.5943 78.2574 72.9864 77.462 73.4835 76.5671C73.5829 77.462 74.279 78.158 75.4722 78.158C76.1682 78.158 76.3671 78.0585 76.8642 77.8597V75.871C76.8642 75.871 76.6653 75.871 76.4665 75.871C75.8699 75.9705 75.671 75.7716 75.671 75.2745ZM72.9864 73.5841C72.9864 75.2745 71.7931 76.1694 70.1028 76.1694C69.2079 76.1694 68.5119 75.5728 68.5119 74.7773C68.5119 73.8824 69.3074 73.3853 70.2023 73.2858L73.0858 73.087V73.5841H72.9864ZM84.421 71.2972C83.3273 71.0983 83.029 71.0984 81.9352 70.9989C81.3386 70.8995 80.6426 70.7006 80.6426 69.8057C80.6426 69.2091 81.0403 68.8114 81.5375 68.6125C81.9352 68.4137 82.3329 68.4137 82.7307 68.4137C83.3273 68.4137 83.9238 68.6125 84.2221 68.9108C84.5204 69.2091 84.7193 69.5074 84.7193 70.0046H87.3046C87.3046 69.2092 86.9068 68.3142 86.3102 67.6182C85.5148 66.7233 84.1227 66.2262 82.7307 66.2262C81.3386 66.2262 80.046 66.6239 79.2505 67.4193C78.5545 68.0159 78.0574 68.8114 78.0574 70.0046C78.0574 71.4961 79.1511 72.6892 80.6426 73.087C81.6369 73.2858 82.8301 73.3853 83.8245 73.4847C84.5205 73.5842 85.0176 74.0813 85.0176 74.6779C85.0176 75.9705 83.6256 76.1694 82.6313 76.1694C81.8358 76.1694 81.3387 75.9705 80.8415 75.6722C80.4438 75.3739 80.2449 74.8768 80.2449 74.2802H77.6597C77.6597 75.3739 78.2563 76.2688 78.8529 76.9648C79.8472 77.8597 81.1397 78.2574 82.5318 78.2574C84.1227 78.2574 85.5148 77.8597 86.4097 76.9648C87.0062 76.3682 87.404 75.5728 87.404 74.479C87.5034 72.7887 86.2108 71.5955 84.421 71.2972ZM95.6568 71.1978L99.7335 66.7234H96.3528L91.9778 71.3966V62.7461H89.1937V78.158H91.9778V75.1751L93.7676 73.1864L96.9494 78.158H100.131L95.6568 71.1978Z" fill="white"></path>
    <path d="M70.5996 98.5428C61.6507 98.5428 53.6962 94.3666 48.6252 87.8041H44.5485C50.1167 96.2558 59.7615 101.923 70.699 101.923C81.6365 101.923 91.182 96.3553 96.8496 87.8041H92.7729C87.503 94.2672 79.5484 98.5428 70.5996 98.5428ZM70.5996 42.6621C79.6479 42.6621 87.6025 46.9377 92.7729 53.5996H96.8496C91.2814 45.0485 81.6365 39.3809 70.5996 39.3809C59.5626 39.3809 50.0172 45.0485 44.3496 53.5996H48.4263C53.5967 46.9377 61.5513 42.6621 70.5996 42.6621Z" fill="white"></path>
    <defs>
        <style type='text/css'>
            @font-face {
                font-family: 'GraphikWebRegular';
                src: url('https://www.zaask.pt/fonts/Graphik-Regular-Web.eot');
                src: url('https://www.zaask.pt/fonts/Graphik-Regular-Web.eot?#iefix') format('eot'),
                url('https://www.zaask.pt/fonts/Graphik-Regular-Web.woff') format('woff'),
                url('https://www.zaask.pt/fonts/Graphik-Regular-Web.ttf') format('truetype'),
                url('https://www.zaask.pt/fonts/Graphik-Regular-Web.svg') format('svg');
                font-weight: 400;
                font-style: normal;
            }
        </style>
    </defs>
</svg>
